<svg width="102" height="72" viewBox="0 0 102 72" fill="none" xmlns="http://www.w3.org/2000/svg"><path d="M56.537 16.509c.344.581-.118 1.142-.65 1.13a3.74 3.74 0 0 0-1.18.168 3.757 3.757 0 0 0-1.072.528c-.435.31-1.127.107-1.163-.57-.063-1.222.494-2.293 1.444-2.586.95-.294 2.002.279 2.621 1.33m-39.861 2.192a3.73 3.73 0 0 0-1.166-.245 3.728 3.728 0 0 0-1.184.13c-.514.144-1.098-.284-.905-.934.346-1.172 1.228-1.99 2.22-1.94.99.047 1.79.946 2.025 2.147.13.665-.492 1.035-.99.842" fill="#786354"/><path d="M1.823 65.631a5.617 5.617 0 0 1-.866-2.997c0-2.989 2.294-5.694 6.336-5.969.057-.015.115-.026.174-.033 5.404-5.619 7.883-19.228 6.413-27.405-4.918-.39-8.376-3.318-9.668-8.318-.571-2.21.442-3.914 2.538-4.319 1.029-.198 1.712-.817 2.09-1.89a.744.744 0 0 1 .04-.102c1.982-4.458 5.417-5.01 7.693-5.214 0-.009-.008-.026 0-.026.823.048 1.844.045 1.299-.568-1.454-1.634-1.709-2.406-1.877-3-.37-1.313 1.005-2.17 2.034-1.998 5.653.946 11.195 6.065 14.124 13.006.383.907 1.034 2.463 1.848 4.461 1.034-2.517 3.139-8.584 9.205-11.779 2.672-1.407 5.298-1.849 8.043-1.676 2.29.141 7.053.434 9.62 6.27.079.079.704.615 3.407.909a30.53 30.53 0 0 0 3.212.165h.016c.718 0 1.304.586 1.314 1.316.096 7.562-3.266 10.856-5.788 12.26l-.01.007c-1.519.927-3.437 1.145-5.217 1.145-.965 0-1.844-.063-2.5-.13-.493 3.161-1.411 15.948 4.833 26.923 4.008.301 6.264 3.007 6.264 5.965a5.617 5.617 0 0 1-.866 2.997s-1.416 2.665-5.742 2.665H45.667a1.324 1.324 0 0 1-1.314-1.333c0-.735.588-1.332 1.314-1.332h14.558c2.45 0 3.547-1.506 3.547-2.997 0-1.9-1.636-3.24-4.152-3.32-1.153.26-2.55.923-3.124 2.582a1.31 1.31 0 0 1-1.676.816 1.338 1.338 0 0 1-.805-1.699c.592-1.711 1.783-3.002 3.43-3.761-5.851-10.836-5.409-23.322-4.77-27.597.117-.789.422-1.778.483-1.916a1.31 1.31 0 0 1 1.412-.77c1.143.19 4.252.52 6.406-.211l.182-.066c2.355-1.041 3.914-3.087 4.612-6.006-.853-.196-2.09-.901-2.894-3.204-2.48-.398-3.888-1.136-4.396-2.296-1.212-2.774-2.94-3.9-4.849-4.383-.987-.25-3.531-.598-5.694.87-.606.41-1.093 1.083-1.385 1.943-.49 1.434-.136 3.037.995 4.513 2.931 3.825 3.671 5.776 3.401 8.314-.17 1.6-1.03 2.911-2.422 3.693-1.91 1.075-4.414 1.11-6.324-.085-2.056-1.287-3.248-3.578-3.825-7.44l-.005-.02c.5-1.297 1.292-3.077 2.265-4.318-.075 1.076-.23 2.433.083 3.87.629 2.884 1.028 4.33 2.627 5.509 1.237.911 2.873.734 3.904.154.64-.36 1.005-.916 1.083-1.65.146-1.372-.005-2.663-2.863-6.392-1.8-2.35-2.37-5.33-1-7.958-.329.171-.71.396-1.067.658 0 0-1.833 1.177-3.751 3.682-.556.726-2.506 3.331-4.243 8.617 3.975 10.007 9.788 25.734 9.788 32.122 0 6.293-5.049 11.41-11.255 11.41s-11.255-5.117-11.255-11.41c0-3.458 2.032-10.834 6.04-21.924.917-2.534 1.847-5.01 2.718-7.269l1.335 3.854c-3.51 9.333-7.464 20.986-7.464 25.34 0 4.822 3.87 8.745 8.626 8.745 4.756 0 8.626-3.923 8.626-8.746 0-6.752-7.476-25.796-9.991-32.092l.002-.004a404.926 404.926 0 0 0-2.844-6.943c-1.864-4.418-5.632-9.19-10.221-10.902 3.43 3.33 2.201 5.074.946 5.074h-3.398c-2.112.176-4.318.417-5.767 3.631-.57 1.575-1.635 2.706-3.056 3.269.308.782.545 2.123-.982 2.824 1.156 2.767 3.69 5.347 9.18 4.79a1.317 1.317 0 0 1 1.437 1.194 1.327 1.327 0 0 1-1.177 1.459l-.157.013c.678 4.25.432 9.814-.687 15.118-1.162 5.513-3.129 10.099-5.617 13.17a6.312 6.312 0 0 1 2.97 3.528c.301.87-.34 1.773-1.24 1.773-.543 0-1.05-.343-1.24-.891-.572-1.65-1.957-2.315-3.107-2.578-5.434.259-5.2 6.313-.488 6.313h15.074c.726 0 1.314.597 1.314 1.332 0 .736-.588 1.333-1.314 1.333H7.132c-4.157 0-5.31-2.665-5.31-2.665" fill="#786354"/><path opacity=".7" d="M76.136 26.598a2.77 2.77 0 0 0-.325-.05.831.831 0 0 1-.375-.125c-.25-.167-.35-.45-.3-.85l.025-.55c.066-.9.1-1.575.1-2.025 0-2.617-.025-5.25-.075-7.9a80.39 80.39 0 0 0-.125-4.35 1.005 1.005 0 0 1 .175-.675.686.686 0 0 1 .55-.275c.2 0 .4.092.6.275.216.183.316.4.3.65-.117.5-.175 1.5-.175 3v2c0 .367.016.95.05 1.75.05-.067.208-.375.475-.925.033-.067.091-.167.175-.3.083-.15.141-.3.175-.45.55-1.667 1-2.95 1.35-3.85.15-.484.35-.892.6-1.225.25-.35.591-.592 1.025-.725.15-.05.35-.033.6.05.266.083.441.183.525.3.1.116.15.258.15.425a.665.665 0 0 1-.175.45.64.64 0 0 1-.4.25c-.417.066-.742.216-.975.45a2.458 2.458 0 0 0-.525.75c-.1.25-.225.633-.375 1.15l-1 2.45c-.05.117-.125.317-.225.6a3.4 3.4 0 0 1-.25.65.635.635 0 0 1-.15.15 1.6 1.6 0 0 0-.175.15c.116-.084.266-.058.45.075.2.133.4.317.6.55.133.267.225.558.275.875.066.317.108.5.125.55.033.267.066.466.1.6.2.533.341 1.025.425 1.475.083.433.141.95.175 1.55.05.6.216 1.125.5 1.575.083.017.175.033.275.05.116.017.241.033.375.05.266.017.441.183.525.5a.429.429 0 0 1 .025.175c0 .183-.084.358-.25.525-.25.25-.567.375-.95.375-.284 0-.559-.075-.825-.225-.25-.15-.434-.35-.55-.6a2.394 2.394 0 0 1-.25-.675 45.42 45.42 0 0 1-.3-2.175c-.067-1.017-.142-1.784-.225-2.3a4.515 4.515 0 0 0-.475-1.525.817.817 0 0 0-.2-.25.372.372 0 0 0-.275-.1c-.1 0-.225.025-.375.075-.034 1.2-.05 2.367-.05 3.5 0 .716.033 1.808.1 3.275a.65.65 0 0 1-.1.45 2.51 2.51 0 0 1-.375.4Zm10.078.425a1.92 1.92 0 0 1-1.2-.425c-.366-.267-.666-.633-.9-1.1a9.916 9.916 0 0 1-.9-3.325 24.971 24.971 0 0 1-.225-3.275c0-.2.009-.367.025-.5v-.45c0-.084-.008-.125-.025-.125v-.45l.025-1.75c.017-.534.084-1.383.2-2.55a8.64 8.64 0 0 1 .575-2.325c.117-.333.267-.583.45-.75a.861.861 0 0 1 .625-.275c.667 0 1.267.125 1.8.375a3.67 3.67 0 0 1 1.35 1c.334.416.617.933.85 1.55.234.6.4 1.242.5 1.925.1.7.15 1.442.15 2.225v.2c0 .517.009.983.025 1.4l.025 1.425c0 4.8-1.116 7.2-3.35 7.2Zm-.1-1.05c.3 0 .575-.117.825-.35.25-.25.442-.584.575-1a9.72 9.72 0 0 0 .575-2.75c.084-.85.125-1.584.125-2.2 0-.75-.058-1.733-.175-2.95-.1-1.283-.15-2.242-.15-2.875v-.45a2.68 2.68 0 0 0-.65-1.65c-.383-.467-.858-.7-1.425-.7-.566 0-.941.325-1.125.975-.166.517-.25 1.183-.25 2 0 .316.009.583.025.8v.675l-.05 1.15c-.033.35-.05.733-.05 1.15 0 .9.025 1.792.075 2.675.067 1.25.234 2.466.5 3.65.267 1.233.659 1.85 1.175 1.85Zm7.584.175-.025-.975a16.01 16.01 0 0 1-.025-.95l.025-.85c-.05-.184-.175-2.009-.375-5.475-.2-3.467-.317-5.692-.35-6.675-.966-.034-1.583-.134-1.85-.3-.183-.133-.275-.284-.275-.45 0-.134.084-.25.25-.35.184-.117.367-.175.55-.175a17.4 17.4 0 0 1 1.7.1c.634.083 1.2.125 1.7.125h.4c.517 0 .775.2.775.6 0 .2-.083.367-.25.5a.978.978 0 0 1-.575.175c-.15 0-.367-.025-.65-.075l-.5-.1-.025.125-.025.125c0 1.483.142 3.85.425 7.1.267 3.05.4 5.416.4 7.1 0 .2-.092.375-.275.525a.834.834 0 0 1-.575.225l-.45-.325ZM79.96 65.523a.64.64 0 0 1-.55-.15c-.15-.15-.224-.35-.224-.6a38.07 38.07 0 0 1-.075-2.375c0-1.067.025-2.125.075-3.175.033-1.067.05-1.85.05-2.35-.184-1.183-.292-3.092-.325-5.725 0-.617-.009-1.117-.025-1.5-.85 0-1.467-.017-1.85-.05h-.15c-.25 0-.384.133-.4.4l-.025 1.8c0 .866.025 1.392.075 1.575.033.2.05.333.05.4 0 .133-.017.333-.05.6a5.31 5.31 0 0 0-.05.6c0 .25.041.467.125.65.066.15.091.358.075.625v.6c.016.517.008 1.275-.025 2.275-.034.8-.05 1.392-.05 1.775 0 .483.016 1.033.05 1.65.033.6.058 1.025.075 1.275l.05.7c.016.267-.042.483-.175.65-.117.15-.292.225-.525.225-.084 0-.192-.017-.325-.05-.15-.05-.25-.133-.3-.25a1.504 1.504 0 0 1-.1-.45l-.075-2.1.025-3.025c-.034-1.8-.05-3.142-.05-4.025l-.025-2.025a67.633 67.633 0 0 0-.125-3.025l-.05-1.025v-.15c0-.167.033-.284.1-.35.066-.084.191-.15.375-.2.333-.084.633-.125.9-.125.15 0 .258.008.325.025.133 0 .333.017.6.05.366.033.658.05.875.05.316 0 .608-.033.875-.1.183-.05.416-.008.7.125.283.117.441.291.475.525.033.233.05.416.05.55 0 .133-.009.233-.025.3a2.3 2.3 0 0 0-.1.725c0 .15.008.316.025.5.016.183.025.375.025.575 0 .166-.009.3-.025.4-.017.15-.025.392-.025.725 0 .55.05 1.325.15 2.325l.075.675c.016.15.025.375.025.675 0 .35-.009.608-.025.775 0 .133-.009.3-.025.5 0 .183.008.408.025.675-.017.383-.009.958.025 1.725l.025.55.15 3.925c0 .183-.05.333-.15.45-.084.1-.259.167-.525.2Zm4.821.35a.927.927 0 0 1-.6-.225.8.8 0 0 1-.275-.55v-1.15a4.811 4.811 0 0 1-.025-.525c0-.35-.025-.884-.075-1.6l-.05-1.6c0-.817.025-2.033.075-3.65.067-1.45.1-2.667.1-3.65 0-.233-.025-.584-.075-1.05-.05-.483-.075-.834-.075-1.05 0-1.184.35-1.775 1.05-1.775.55 0 1.183.108 1.9.325.734.217 1.1.475 1.1.775 0 .166-.075.325-.225.475-.133.133-.3.242-.5.325a10.09 10.09 0 0 0-1.9-.5c.017.25.025.608.025 1.075 0 .666-.008 1.266-.025 1.8-.05.8-.075 1.4-.075 1.8l.075.4.4-.025c.134-.017.3-.025.5-.025.8 0 1.2.233 1.2.7a.616.616 0 0 1-.225.475.91.91 0 0 1-.575.175c-.3 0-.533-.017-.7-.05h-.625c.034.433.05 1.066.05 1.9 0 .833-.008 1.583-.025 2.25a50.893 50.893 0 0 0-.075 2.275c0 .933.017 1.4.05 1.4l.825-.025c.284-.017.625-.025 1.025-.025.633 0 .95.2.95.6 0 .233-.108.408-.325.525-.2.133-.45.2-.75.2h-2.125Zm-1.2-18.275c-.216 0-.416-.092-.6-.275a.904.904 0 0 1 .025-1.275c.2-.2.425-.3.675-.3.234 0 .434.1.6.3a.861.861 0 0 1 .275.625.918.918 0 0 1-.275.675c-.183.166-.416.25-.7.25Zm4.025.125c-.216 0-.416-.092-.6-.275a.904.904 0 0 1 .025-1.275c.2-.2.425-.3.675-.3.233 0 .442.1.625.3a.88.88 0 0 1-.025 1.3c-.183.166-.416.25-.7.25Zm6.48 18.175a4.37 4.37 0 0 1-1.175-.175c-.4-.1-.709-.217-.925-.35-1.117-.717-1.675-2.675-1.675-5.875v-2.05c0-.667.008-1.258.025-1.775.016-.534.05-1.108.1-1.725.05-.65.125-1.175.225-1.575.1-.417.266-.883.5-1.4.2-.483.441-.858.725-1.125.3-.267.683-.492 1.15-.675.416-.184.933-.275 1.55-.275.25 0 .441.058.575.175a.57.57 0 0 1 .2.45.666.666 0 0 1-.175.45.53.53 0 0 1-.375.225h-1.175c-.334 0-.625.208-.875.625-.25.416-.425.958-.525 1.625-.217 1.233-.325 2.233-.325 3v.125l-.05 2.4a51.77 51.77 0 0 0-.05 2.425c0 .633.025 1.15.075 1.55.083.6.225 1.1.425 1.5.2.45.541.775 1.025.975.25.1.525.15.825.15a.932.932 0 0 0 .55-.2c.216 0 .391.05.525.15.15.083.225.217.225.4 0 .65-.459.975-1.375.975Z" fill="#000"/><path d="M86.066 43.639a.935.935 0 0 1-.204.034c-.136 0-.233-.085-.29-.255a1.635 1.635 0 0 1-.067-.51l.017-1.173a.957.957 0 0 0-.017-.187l-.034-.17h-1.955c.113 0-.159.056-.816.17-.646.102-1.15.17-1.513.204l-.765.068-.85.085v.374c.011.147.011.323 0 .527v.085c0 .181-.046.317-.136.408-.091.09-.176.136-.255.136a.523.523 0 0 1-.204-.068.805.805 0 0 1-.34-.612l-.051-1.241c-.023-.442.158-.663.544-.663.215-.011.385-.068.51-.17.124-.102.272-.26.442-.476.17-.227.3-.476.39-.748a8.79 8.79 0 0 0 .29-1.02c.102-.43.175-.85.22-1.258.046-.408.103-.992.17-1.751.103-1.19.154-2.386.154-3.587l-.017-.952a.75.75 0 0 1 .187-.527.633.633 0 0 1 .51-.221c.068 0 .119.006.153.017.521.09.946.147 1.275.17h.085c.147 0 .232-.029.255-.085a.454.454 0 0 1 .374-.204c.102 0 .192.022.272.068.181.068.3.238.357.51l-.085 2.907c0 1.575.005 2.754.017 3.536 0 .408.011 1.031.034 1.87l.017.935c0 .09.005.175.017.255l.034.238c.226.023.396.034.51.034.09 0 .158-.006.204-.017a.825.825 0 0 1 .663.187c.204.147.306.34.306.578 0 .306-.023.765-.068 1.377 0 .158-.012.385-.034.68-.023.238-.125.385-.306.442Zm-4.896-2.703a45.308 45.308 0 0 0 1.496-.153 7.441 7.441 0 0 0 1.105-.255 53.61 53.61 0 0 0 .17-4.403c0-1.45-.057-3.043-.17-4.777-.295-.011-.845-.04-1.65-.085l-.016.799a337.345 337.345 0 0 0-.187 3.91 14.136 14.136 0 0 1-.663 3.808c-.023.068-.074.238-.153.51-.068.26-.176.487-.323.68l.39-.034Zm9.687.765c-.26 0-.453-.04-.578-.12-.124-.079-.187-.226-.187-.441 0-.34-.056-.918-.17-1.734l-.068-.357-1.683-.255c-.068.26-.164.788-.289 1.58-.068.556-.175.924-.323 1.106a.405.405 0 0 1-.34.153.638.638 0 0 1-.374-.12.404.404 0 0 1-.17-.322l.034-.085.017-.068a75.61 75.61 0 0 0 1.7-8.62 2.4 2.4 0 0 1 .017-.22c.012-.114.023-.272.034-.476.034-.42.068-.754.102-1.003.046-.25.114-.437.204-.561h.578c.16 0 .295.04.408.119.114.068.17.17.17.306 0 .861.12 2.142.357 3.842.227 1.745.34 2.97.34 3.672 0 .068.029.243.085.527.057.26.085.43.085.51 0 .08.057.42.17 1.02.102.544.153.895.153 1.054v.017c0 .25-.09.408-.272.476Zm-1.122-3.264a3.275 3.275 0 0 1-.05-.63c0-1.02-.091-2.323-.273-3.91l-.17-1.767c-.487 2.663-.821 4.675-1.003 6.035.17.113.67.204 1.496.272Z" fill="#786354"/></svg>